<?xml version="1.0" encoding="utf-8"?>
<!-- Generator: Adobe Illustrator 16.2.1, SVG Export Plug-In . SVG Version: 6.00 Build 0)  -->
<!DOCTYPE svg PUBLIC "-//W3C//DTD SVG 1.1//EN" "http://www.w3.org/Graphics/SVG/1.1/DTD/svg11.dtd">
<svg version="1.1" id="group" xmlns="http://www.w3.org/2000/svg" xmlns:xlink="http://www.w3.org/1999/xlink" x="0px" y="0px"
	 width="16px" height="16px" viewBox="0 0 16 16" enable-background="new 0 0 16 16" xml:space="preserve">
<path fill="#A82400" d="M14,8c0-1.104,0.896-2,2-2V1.913C13.452,2.616,10.771,3,8,3S2.548,2.616,0,1.913V6c1.104,0,2,0.896,2,2
	s-0.896,2-2,2v4.087C2.548,13.384,5.229,13,8,13s5.452,0.384,8,1.087V10C14.896,10,14,9.104,14,8z"/>
<path fill="#FFFFFF" d="M10.026,6.369C9.759,6.247,9.47,6.158,9.013,6.158c-0.923,0-1.514,0.734-1.514,1.814
	c0,1.058,0.501,1.87,1.548,1.87c0.423,0,0.891-0.156,1.147-0.267l0.066,1.236C9.826,10.944,9.38,11,8.768,11
	C6.887,11,5.94,9.72,5.94,7.972C5.94,6.313,6.92,5,8.712,5c0.601,0,1.035,0.067,1.447,0.189L10.026,6.369z"/>
</svg>
