<?xml version="1.0" encoding="utf-8"?>
<!-- Generator: Adobe Illustrator 16.2.1, SVG Export Plug-In . SVG Version: 6.00 Build 0)  -->
<!DOCTYPE svg PUBLIC "-//W3C//DTD SVG 1.1//EN" "http://www.w3.org/Graphics/SVG/1.1/DTD/svg11.dtd">
<svg version="1.1" id="group" xmlns="http://www.w3.org/2000/svg" xmlns:xlink="http://www.w3.org/1999/xlink" x="0px" y="0px"
	 width="16px" height="16px" viewBox="0 0 16 16" enable-background="new 0 0 16 16" xml:space="preserve">
<path fill-rule="evenodd" clip-rule="evenodd" fill="#171515" d="M8,0.197c-4.418,0-8,3.582-8,8c0,3.535,2.292,6.533,5.472,7.592
	c0.399,0.073,0.546-0.174,0.546-0.386c0-0.19-0.007-0.693-0.011-1.361c-2.226,0.483-2.695-1.072-2.695-1.072
	c-0.364-0.924-0.889-1.17-0.889-1.17c-0.726-0.496,0.056-0.486,0.056-0.486c0.803,0.057,1.225,0.824,1.225,0.824
	c0.714,1.223,1.873,0.87,2.328,0.665c0.073-0.518,0.28-0.87,0.509-1.069c-1.776-0.202-3.645-0.889-3.645-3.954
	c0-0.874,0.312-1.588,0.823-2.147C3.637,5.43,3.362,4.616,3.798,3.516c0,0,0.671-0.216,2.2,0.819C6.636,4.158,7.32,4.068,8,4.065
	c0.68,0.003,1.364,0.093,2.003,0.27c1.528-1.035,2.198-0.819,2.198-0.819c0.437,1.101,0.162,1.914,0.08,2.116
	c0.512,0.56,0.822,1.273,0.822,2.147c0,3.073-1.871,3.749-3.653,3.947c0.287,0.247,0.543,0.735,0.543,1.481
	c0,1.069-0.01,1.933-0.01,2.195c0,0.214,0.145,0.463,0.551,0.385C13.71,14.728,16,11.731,16,8.197C16,3.779,12.418,0.197,8,0.197z"
	/>
</svg>
