<?xml version="1.0" encoding="utf-8"?>
<!-- Generator: Adobe Illustrator 16.2.1, SVG Export Plug-In . SVG Version: 6.00 Build 0)  -->
<!DOCTYPE svg PUBLIC "-//W3C//DTD SVG 1.1//EN" "http://www.w3.org/Graphics/SVG/1.1/DTD/svg11.dtd">
<svg version="1.1" id="DmP_x5F_Logo" xmlns="http://www.w3.org/2000/svg" xmlns:xlink="http://www.w3.org/1999/xlink" x="0px"
	 y="0px" width="110px" height="110px" viewBox="0 0 110 110" enable-background="new 0 0 110 110" xml:space="preserve">
<g id="logo_x5F_L">
	<defs>
		<rect id="mask_1_" x="0" width="55" height="110"/>
	</defs>
	<clipPath id="mask_2_">
		<use xlink:href="#mask_1_"  overflow="visible"/>
	</clipPath>
	<path id="path_7_" opacity="0.3" clip-path="url(#mask_2_)" d="M97.475,30.476l-4.949-4.949l-8.871,8.87L56.658,7.4
		c-1.602-1.601-3.734-2.482-6.01-2.482c-2.272,0-4.407,0.882-6.011,2.483L17.055,34.985c-1.602,1.602-2.483,3.736-2.483,6.011
		s0.884,4.409,2.483,6.01l25.934,25.936c1.604,1.601,3.736,2.482,6.012,2.482c2.272,0,4.407-0.882,6.011-2.483l33.593-33.594l0,0
		L97.475,30.476z M49,68.424c-0.234,0-0.686-0.056-1.062-0.433L22.004,42.055c-0.377-0.376-0.435-0.825-0.435-1.06
		s0.058-0.684,0.436-1.062L49.588,12.35c0.377-0.378,0.827-0.434,1.061-0.434c0.234,0,0.686,0.056,1.062,0.433l26.993,26.996
		L54.776,63.273l0.001,0.001l-4.715,4.715C49.684,68.368,49.234,68.424,49,68.424z"/>
	<path id="path_6_" clip-path="url(#mask_2_)" fill="#FFFFFF" d="M97.475,29.476l-4.949-4.949l-8.871,8.87L56.658,6.4
		c-1.602-1.601-3.734-2.482-6.01-2.482c-2.272,0-4.407,0.882-6.011,2.483L17.055,33.985c-1.602,1.602-2.483,3.736-2.483,6.011
		s0.884,4.409,2.483,6.01l25.934,25.936c1.604,1.601,3.736,2.482,6.012,2.482c2.272,0,4.407-0.882,6.011-2.483l33.593-33.594l0,0
		L97.475,29.476z M49,67.424c-0.234,0-0.686-0.056-1.062-0.433L22.004,41.055c-0.377-0.376-0.435-0.825-0.435-1.06
		s0.058-0.684,0.436-1.062L49.588,11.35c0.377-0.378,0.827-0.434,1.061-0.434c0.234,0,0.686,0.056,1.062,0.433l26.993,26.996
		L54.776,62.273l0.001,0.001l-4.715,4.715C49.684,67.368,49.234,67.424,49,67.424z"/>
	<path id="path_5_" opacity="0.3" clip-path="url(#mask_2_)" d="M92.944,64.996L67.01,39.061c-1.604-1.601-3.736-2.482-6.01-2.482
		c-2.274,0-4.409,0.882-6.013,2.483L21.394,72.657l0,0l-8.87,8.87l4.949,4.95l8.87-8.871L53.34,104.6
		c1.602,1.603,3.734,2.482,6.01,2.482c2.272,0,4.409-0.882,6.011-2.482l27.583-27.583c1.604-1.602,2.484-3.736,2.484-6.011
		S94.546,66.597,92.944,64.996z M87.992,72.066L60.409,99.648c-0.377,0.377-0.825,0.435-1.061,0.435s-0.686-0.058-1.062-0.435
		L31.294,72.656l20.719-20.72l3.209-3.209l0,0l4.715-4.716c0.377-0.378,0.827-0.434,1.061-0.434c0.234,0,0.686,0.056,1.062,0.433
		l25.934,25.936c0.377,0.376,0.435,0.825,0.435,1.06C88.427,71.241,88.37,71.689,87.992,72.066z"/>
	<path id="path_4_" clip-path="url(#mask_2_)" fill="#FFD500" d="M92.944,63.996L67.01,38.061c-1.604-1.601-3.736-2.482-6.01-2.482
		c-2.274,0-4.409,0.882-6.013,2.483L21.394,71.657l0,0l-8.87,8.87l4.949,4.949l8.87-8.87L53.34,103.6
		c1.602,1.603,3.734,2.482,6.01,2.482c2.272,0,4.409-0.882,6.011-2.482l27.583-27.583c1.604-1.602,2.484-3.736,2.484-6.011
		S94.546,65.597,92.944,63.996z M87.992,71.066L60.409,98.648c-0.377,0.377-0.825,0.435-1.061,0.435s-0.686-0.058-1.062-0.435
		L31.294,71.656l20.719-20.72l3.209-3.209l0,0l4.715-4.716c0.377-0.378,0.827-0.434,1.061-0.434c0.234,0,0.686,0.056,1.062,0.433
		l25.934,25.936c0.377,0.376,0.435,0.825,0.435,1.06C88.427,70.241,88.37,70.689,87.992,71.066z"/>
</g>
<g id="logo_x5F_R">
	<defs>
		<rect id="mask" x="55" width="55" height="110"/>
	</defs>
	<clipPath id="mask_3_">
		<use xlink:href="#mask"  overflow="visible"/>
	</clipPath>
	<path id="path_3_" opacity="0.3" clip-path="url(#mask_3_)" d="M92.944,64.996L67.01,39.061c-1.604-1.601-3.736-2.482-6.01-2.482
		c-2.274,0-4.409,0.882-6.013,2.483L21.394,72.657l0,0l-8.87,8.87l4.949,4.95l8.87-8.871L53.34,104.6
		c1.602,1.603,3.734,2.482,6.01,2.482c2.272,0,4.409-0.882,6.011-2.482l27.583-27.583c1.604-1.602,2.484-3.736,2.484-6.011
		S94.546,66.597,92.944,64.996z M87.992,72.066L60.409,99.648c-0.377,0.377-0.825,0.435-1.061,0.435s-0.686-0.058-1.062-0.435
		L31.294,72.656l20.719-20.72l3.209-3.209l0,0l4.715-4.716c0.377-0.378,0.827-0.434,1.061-0.434c0.234,0,0.686,0.056,1.062,0.433
		l25.934,25.936c0.377,0.376,0.435,0.825,0.435,1.06C88.427,71.241,88.37,71.689,87.992,72.066z"/>
	<path id="path_2_" clip-path="url(#mask_3_)" fill="#FFD500" d="M92.944,63.996L67.01,38.061c-1.604-1.601-3.736-2.482-6.01-2.482
		c-2.274,0-4.409,0.882-6.013,2.483L21.394,71.657l0,0l-8.87,8.87l4.949,4.949l8.87-8.87L53.34,103.6
		c1.602,1.603,3.734,2.482,6.01,2.482c2.272,0,4.409-0.882,6.011-2.482l27.583-27.583c1.604-1.602,2.484-3.736,2.484-6.011
		S94.546,65.597,92.944,63.996z M87.992,71.066L60.409,98.648c-0.377,0.377-0.825,0.435-1.061,0.435s-0.686-0.058-1.062-0.435
		L31.294,71.656l20.719-20.72l3.209-3.209l0,0l4.715-4.716c0.377-0.378,0.827-0.434,1.061-0.434c0.234,0,0.686,0.056,1.062,0.433
		l25.934,25.936c0.377,0.376,0.435,0.825,0.435,1.06C88.427,70.241,88.37,70.689,87.992,71.066z"/>
	<path id="path_1_" opacity="0.3" clip-path="url(#mask_3_)" d="M97.475,30.476l-4.949-4.949l-8.871,8.87L56.658,7.4
		c-1.602-1.601-3.734-2.482-6.01-2.482c-2.272,0-4.407,0.882-6.011,2.483L17.055,34.985c-1.602,1.602-2.483,3.736-2.483,6.011
		s0.884,4.409,2.483,6.01l25.934,25.936c1.604,1.601,3.736,2.482,6.012,2.482c2.272,0,4.407-0.882,6.011-2.483l33.593-33.594l0,0
		L97.475,30.476z M49,68.424c-0.234,0-0.686-0.056-1.062-0.433L22.004,42.055c-0.377-0.376-0.435-0.825-0.435-1.06
		s0.058-0.684,0.436-1.062L49.588,12.35c0.377-0.378,0.827-0.434,1.061-0.434c0.234,0,0.686,0.056,1.062,0.433l26.993,26.996
		L54.776,63.273l0.001,0.001l-4.715,4.715C49.684,68.368,49.234,68.424,49,68.424z"/>
	<path id="path" clip-path="url(#mask_3_)" fill="#FFFFFF" d="M97.475,29.476l-4.949-4.949l-8.871,8.87L56.658,6.4
		c-1.602-1.601-3.734-2.482-6.01-2.482c-2.272,0-4.407,0.882-6.011,2.483L17.055,33.985c-1.602,1.602-2.483,3.736-2.483,6.011
		s0.884,4.409,2.483,6.01l25.934,25.936c1.604,1.601,3.736,2.482,6.012,2.482c2.272,0,4.407-0.882,6.011-2.483l33.593-33.594l0,0
		L97.475,29.476z M49,67.424c-0.234,0-0.686-0.056-1.062-0.433L22.004,41.055c-0.377-0.376-0.435-0.825-0.435-1.06
		s0.058-0.684,0.436-1.062L49.588,11.35c0.377-0.378,0.827-0.434,1.061-0.434c0.234,0,0.686,0.056,1.062,0.433l26.993,26.996
		L54.776,62.273l0.001,0.001l-4.715,4.715C49.684,67.368,49.234,67.424,49,67.424z"/>
</g>
</svg>
